<svg xmlns="http://www.w3.org/2000/svg" viewBox="0 0 64 64" role="img" aria-label="PhotoScan Lab">
  <rect width="64" height="64" rx="14" fill="#17212f"/>
  <path d="M17 18h30a3 3 0 0 1 3 3v22a3 3 0 0 1-3 3H17a3 3 0 0 1-3-3V21a3 3 0 0 1 3-3Z" fill="#f8fafc"/>
  <path d="M18 24h28M18 31h28M18 38h20" stroke="#d6dde7" stroke-width="2.3" stroke-linecap="round"/>
  <path d="M14 18v-4h4M50 18v-4h-4M14 46v4h4M50 46v4h-4" fill="none" stroke="#4fb1ad" stroke-width="4" stroke-linecap="round" stroke-linejoin="round"/>
  <text x="32" y="39" text-anchor="middle" font-family="Arial, Helvetica, sans-serif" font-size="16" font-weight="800" fill="#17212f">PS</text>
</svg>
